<svg width="322" height="94" viewBox="0 0 322 94" fill="none" xmlns="http://www.w3.org/2000/svg">
<path d="M25.744 31.584C22.864 31.584 20.688 32.352 19.216 33.888C17.744 35.36 16.816 37.92 16.432 41.568C16.432 42.08 16.656 42.336 17.104 42.336H33.328C33.904 42.336 34.192 42.048 34.192 41.472C33.936 34.88 31.12 31.584 25.744 31.584ZM28.144 72.96C19.44 72.96 12.72 70.752 7.984 66.336C3.312 61.92 0.976 55.488 0.976 47.04C0.976 38.656 3.056 32.256 7.216 27.84C11.44 23.36 17.52 21.12 25.456 21.12C40.688 21.12 48.432 29.44 48.688 46.08C48.688 47.616 48.08 48.928 46.864 50.016C45.712 51.04 44.368 51.552 42.832 51.552H17.2C16.56 51.552 16.304 51.84 16.432 52.416C16.944 55.936 18.288 58.464 20.464 60C22.704 61.472 26.032 62.208 30.448 62.208C33.328 62.208 36.432 61.792 39.76 60.96C41.104 60.64 42.288 60.896 43.312 61.728C44.4 62.56 44.944 63.648 44.944 64.992V65.184C44.944 66.784 44.432 68.256 43.408 69.6C42.448 70.88 41.2 71.648 39.664 71.904C35.952 72.608 32.112 72.96 28.144 72.96ZM65.317 50.304C63.845 50.304 62.565 49.76 61.477 48.672C60.453 47.584 59.941 46.304 59.941 44.832V43.488C59.941 42.016 60.453 40.736 61.477 39.648C62.565 38.56 63.845 38.016 65.317 38.016H87.781C89.253 38.016 90.501 38.56 91.525 39.648C92.613 40.736 93.157 42.016 93.157 43.488V44.832C93.157 46.304 92.613 47.584 91.525 48.672C90.501 49.76 89.253 50.304 87.781 50.304H65.317ZM123.255 52.8C116.343 51.52 111.383 49.536 108.375 46.848C105.431 44.16 103.959 40.608 103.959 36.192C103.959 31.456 105.719 27.776 109.239 25.152C112.823 22.464 118.199 21.12 125.367 21.12C129.591 21.12 133.911 21.472 138.327 22.176C139.863 22.432 141.111 23.168 142.071 24.384C143.095 25.6 143.607 27.008 143.607 28.608V29.088C143.607 30.432 143.063 31.52 141.975 32.352C140.951 33.184 139.767 33.472 138.423 33.216C134.263 32.384 130.423 31.968 126.903 31.968C124.279 31.968 122.423 32.288 121.335 32.928C120.311 33.568 119.799 34.528 119.799 35.808C119.799 38.24 121.719 39.84 125.559 40.608C132.855 41.824 137.943 43.744 140.823 46.368C143.767 48.992 145.239 52.8 145.239 57.792C145.239 62.592 143.447 66.336 139.863 69.024C136.279 71.648 131.063 72.96 124.215 72.96C119.223 72.96 114.487 72.48 110.007 71.52C108.471 71.2 107.191 70.4 106.167 69.12C105.207 67.776 104.727 66.272 104.727 64.608V63.84C104.727 62.496 105.271 61.472 106.359 60.768C107.447 60 108.663 59.776 110.007 60.096C114.167 61.184 118.263 61.728 122.295 61.728C127.031 61.728 129.399 60.352 129.399 57.6C129.399 56.32 128.951 55.328 128.055 54.624C127.223 53.92 125.623 53.312 123.255 52.8ZM162.444 72C160.972 72 159.692 71.456 158.604 70.368C157.516 69.28 156.972 68 156.972 66.528V5.472C156.972 4 157.516 2.72 158.604 1.632C159.692 0.543995 160.972 -5.72205e-06 162.444 -5.72205e-06H167.052C168.524 -5.72205e-06 169.804 0.543995 170.892 1.632C171.98 2.72 172.524 4 172.524 5.472V27.264C172.524 27.328 172.556 27.36 172.62 27.36C172.684 27.36 172.748 27.328 172.812 27.264C177.292 23.168 182.092 21.12 187.212 21.12C193.1 21.12 197.324 22.816 199.884 26.208C202.444 29.536 203.724 35.52 203.724 44.16V66.528C203.724 68 203.18 69.28 202.092 70.368C201.004 71.456 199.724 72 198.252 72H194.028C192.556 72 191.276 71.456 190.188 70.368C189.1 69.28 188.556 68 188.556 66.528V46.08C188.556 40.96 188.044 37.568 187.02 35.904C186.06 34.24 184.204 33.408 181.452 33.408C179.276 33.408 177.228 34.368 175.308 36.288C173.452 38.144 172.524 40.128 172.524 42.24V66.528C172.524 68 171.98 69.28 170.892 70.368C169.804 71.456 168.524 72 167.052 72H162.444ZM244.826 35.52C243.29 33.152 240.922 31.968 237.722 31.968C234.522 31.968 232.122 33.152 230.522 35.52C228.986 37.888 228.218 41.728 228.218 47.04C228.218 52.352 228.986 56.192 230.522 58.56C232.122 60.928 234.522 62.112 237.722 62.112C240.922 62.112 243.29 60.928 244.826 58.56C246.426 56.192 247.226 52.352 247.226 47.04C247.226 41.728 246.426 37.888 244.826 35.52ZM256.25 66.144C251.834 70.688 245.658 72.96 237.722 72.96C229.786 72.96 223.61 70.688 219.194 66.144C214.778 61.6 212.57 55.232 212.57 47.04C212.57 38.848 214.778 32.48 219.194 27.936C223.61 23.392 229.786 21.12 237.722 21.12C245.658 21.12 251.834 23.392 256.25 27.936C260.666 32.48 262.874 38.848 262.874 47.04C262.874 55.232 260.666 61.6 256.25 66.144ZM287.348 41.088V52.992C287.348 55.104 288.308 57.056 290.228 58.848C292.212 60.576 294.452 61.44 296.948 61.44C299.892 61.44 302.228 60.256 303.956 57.888C305.684 55.456 306.548 51.84 306.548 47.04C306.548 37.44 303.348 32.64 296.948 32.64C294.452 32.64 292.212 33.536 290.228 35.328C288.308 37.056 287.348 38.976 287.348 41.088ZM277.652 93.12C276.18 93.12 274.9 92.576 273.812 91.488C272.724 90.4 272.18 89.12 272.18 87.648V27.552C272.18 26.08 272.724 24.8 273.812 23.712C274.9 22.624 276.18 22.08 277.652 22.08H281.492C283.028 22.08 284.34 22.624 285.428 23.712C286.516 24.736 287.092 26.016 287.156 27.552V28.32C287.156 28.384 287.188 28.416 287.252 28.416L287.444 28.224C291.54 23.488 296.468 21.12 302.228 21.12C308.18 21.12 312.916 23.36 316.436 27.84C320.02 32.32 321.812 38.72 321.812 47.04C321.812 55.104 319.956 61.44 316.244 66.048C312.596 70.656 307.924 72.96 302.228 72.96C296.916 72.96 292.18 71.008 288.02 67.104C287.956 67.04 287.892 67.008 287.828 67.008C287.764 67.008 287.732 67.04 287.732 67.104V87.648C287.732 89.12 287.188 90.4 286.1 91.488C285.012 92.576 283.732 93.12 282.26 93.12H277.652Z" fill="#FF9800"/>
</svg>
