<?xml version="1.0" standalone="no"?>
<!DOCTYPE svg PUBLIC "-//W3C//DTD SVG 20010904//EN"
 "http://www.w3.org/TR/2001/REC-SVG-20010904/DTD/svg10.dtd">
<svg version="1.0" xmlns="http://www.w3.org/2000/svg"
 width="2576.000000pt" height="2576.000000pt" viewBox="0 0 2576.000000 2576.000000"
 preserveAspectRatio="xMidYMid meet">
<metadata>
Created by potrace 1.14, written by Peter Selinger 2001-2017
</metadata>
<g transform="translate(0.000000,2576.000000) scale(0.100000,-0.100000)"
fill="#000000" stroke="none">
<path d="M12906 16633 c-4 -4 -14 -8 -22 -9 -9 -1 -23 -6 -32 -10 -9 -4 -22
-8 -28 -9 -25 -6 -102 -63 -147 -110 -45 -47 -94 -130 -102 -172 -2 -10 -4
-18 -5 -18 -12 0 -18 -4959 -6 -5054 9 -77 56 -168 120 -233 50 -51 128 -104
166 -114 73 -18 103 -24 107 -20 3 3 16 1 29 -4 16 -6 24 -6 24 1 0 6 4 7 10
4 13 -8 118 -10 126 -3 3 4 17 3 30 -2 14 -6 26 -6 29 0 3 5 15 6 27 1 12 -4
39 -5 60 -1 22 4 38 3 38 -2 0 -5 4 -7 8 -4 4 2 37 8 72 11 143 15 275 106
343 238 40 78 64 214 46 264 -5 12 -5 24 -1 27 9 5 7 559 -2 574 -4 7 -4 12 1
12 4 0 8 41 8 90 0 50 -3 90 -7 90 -4 0 -4 10 0 23 9 28 8 409 -2 425 -4 7 -4
12 1 12 4 0 8 41 8 90 0 50 -4 90 -8 90 -5 0 -5 5 -1 11 3 6 8 131 9 278 2
223 5 272 19 304 9 20 14 37 12 37 -2 0 11 31 29 69 47 97 133 199 246 296 64
54 182 116 250 130 9 2 32 7 50 12 47 13 202 9 274 -6 139 -30 234 -101 290
-214 34 -71 61 -158 71 -227 2 -19 6 -42 9 -50 5 -20 15 -117 21 -225 3 -49 7
-515 9 -1035 1 -520 5 -954 8 -965 3 -11 8 -33 13 -50 4 -16 15 -42 25 -56 10
-14 16 -28 14 -31 -8 -8 107 -124 150 -152 54 -34 119 -56 184 -62 29 -2 57
-7 62 -10 5 -3 9 -1 9 5 0 6 11 6 30 1 17 -5 32 -5 35 0 3 5 16 5 28 1 12 -5
34 -5 48 -1 15 4 32 4 39 0 7 -5 24 -4 36 0 14 6 26 5 29 -1 4 -5 10 -7 15 -4
5 3 40 8 77 10 87 5 88 5 158 39 116 56 222 190 244 311 9 50 7 2190 -2 2270
-2 22 -8 74 -12 115 -7 82 -10 105 -19 167 -4 23 -9 55 -11 70 -14 106 -58
279 -102 398 -30 82 -113 245 -125 245 -4 0 -8 6 -8 13 0 20 -121 147 -186
197 -33 25 -61 47 -64 50 -22 22 -224 113 -282 126 -10 2 -28 7 -40 10 -22 5
-91 21 -133 29 -64 14 -129 17 -300 18 -166 1 -236 -3 -295 -16 -8 -2 -31 -7
-50 -11 -48 -10 -200 -55 -225 -66 -212 -92 -380 -193 -514 -308 -9 -8 -36
-31 -61 -52 -24 -21 -47 -37 -51 -34 -4 2 -6 45 -5 96 1 51 -2 103 -6 115 -4
12 -4 24 0 27 9 5 7 210 -2 224 -3 6 -3 13 1 15 10 6 9 1010 -1 1025 -3 6 -3
13 1 15 11 7 7 260 -5 318 -29 148 -168 294 -317 334 -53 14 -556 21 -569 8z"/>
<path d="M1829 14946 c-2 -2 -44 -7 -93 -10 -49 -4 -92 -9 -96 -11 -3 -2 -33
-7 -65 -10 -33 -4 -69 -12 -80 -18 -11 -6 -20 -9 -20 -7 0 3 -65 -9 -85 -15
-3 -1 -23 -5 -45 -10 -22 -4 -52 -14 -67 -22 -16 -7 -28 -11 -28 -7 0 4 -6 2
-12 -4 -7 -6 -17 -11 -23 -11 -72 -7 -361 -165 -482 -263 -44 -36 -243 -237
-243 -245 0 -5 -10 -19 -23 -33 -38 -42 -115 -170 -166 -275 -61 -126 -147
-381 -156 -460 -1 -5 -4 -21 -8 -35 -4 -14 -9 -36 -11 -50 -3 -14 -5 -25 -6
-25 -1 0 -3 -20 -5 -45 -2 -25 -6 -56 -9 -70 -20 -88 -36 -505 -22 -529 4 -5
2 -12 -4 -16 -6 -4 -8 -10 -6 -14 3 -4 8 -50 11 -102 4 -52 8 -110 11 -129 2
-19 7 -57 10 -85 3 -27 7 -56 10 -64 2 -8 7 -30 10 -50 3 -20 10 -54 15 -76 5
-22 11 -49 13 -60 25 -128 175 -498 209 -513 4 -2 7 -10 7 -18 0 -8 5 -14 10
-14 6 0 10 -6 10 -13 0 -7 13 -28 30 -47 16 -19 29 -40 30 -47 0 -6 3 -13 8
-15 4 -2 20 -19 35 -38 39 -47 145 -157 193 -199 59 -52 182 -141 193 -141 6
0 11 -4 11 -9 0 -14 295 -157 394 -191 80 -27 206 -64 261 -75 39 -9 70 -15
100 -20 17 -3 39 -7 51 -9 19 -4 39 -7 164 -22 189 -23 648 -23 865 1 174 18
259 30 350 46 33 6 71 13 85 15 176 26 320 146 396 333 27 69 38 131 37 223 0
69 -28 167 -50 175 -7 3 -13 10 -13 16 0 16 -78 84 -119 103 -20 10 -36 16
-36 14 0 -2 -10 2 -23 9 -34 18 -159 17 -189 -2 -7 -5 -13 -6 -13 -3 0 3 -10
2 -23 -3 -13 -5 -41 -12 -63 -15 -21 -4 -55 -11 -74 -16 -19 -5 -59 -12 -89
-15 -30 -3 -58 -8 -61 -10 -4 -3 -34 -7 -66 -10 -32 -3 -81 -8 -109 -11 -66
-8 -361 -9 -455 -1 -73 6 -114 11 -175 23 -16 3 -43 8 -60 11 -51 8 -207 63
-270 95 -54 27 -155 101 -163 120 -2 4 -17 22 -33 39 -24 26 -99 142 -99 153
0 2 -8 21 -17 42 -9 22 -18 44 -19 49 -1 6 -9 29 -18 53 -8 23 -15 43 -15 45
0 1 -2 13 -5 27 -4 14 -9 41 -11 60 -3 19 -8 49 -10 66 -10 62 -75 59 1099 60
1088 0 1150 2 1194 37 6 5 12 7 12 3 0 -14 109 63 152 107 113 117 133 201
114 487 -11 171 -16 209 -47 390 -17 100 -72 302 -99 365 -4 11 -18 46 -30 78
-33 86 -119 246 -147 275 -7 7 -13 17 -13 21 0 14 -91 126 -162 199 -64 64
-219 192 -234 192 -3 0 -18 9 -33 19 -33 24 -181 101 -181 95 0 -3 -12 2 -27
10 -24 12 -45 21 -73 31 -3 1 -12 4 -20 8 -8 3 -37 12 -65 20 -145 42 -206 55
-337 72 -21 3 -57 8 -80 11 -46 6 -503 15 -509 10z m344 -840 c33 -4 69 -11
80 -15 12 -5 24 -8 27 -8 12 1 88 -28 120 -46 197 -109 301 -312 329 -642 8
-94 -1 -134 -32 -137 -12 0 -321 -2 -687 -3 -721 -1 -692 -4 -693 53 -2 67 31
238 65 342 60 188 155 310 295 379 37 19 76 38 86 43 10 5 22 6 27 3 6 -4 10
-1 10 6 0 7 3 10 6 7 3 -4 20 -2 37 3 18 5 68 12 112 16 44 3 81 6 82 7 4 3
76 -1 136 -8z"/>
<path d="M9778 14945 c-2 -1 -37 -5 -78 -9 -126 -10 -184 -17 -198 -21 -7 -3
-34 -7 -60 -10 -26 -4 -60 -10 -77 -15 -16 -5 -41 -11 -55 -14 -89 -15 -280
-81 -385 -134 -38 -19 -72 -37 -75 -41 -8 -10 -43 -31 -62 -37 -10 -4 -18 -10
-18 -14 0 -5 -10 -12 -21 -15 -12 -4 -67 -53 -123 -109 -98 -97 -165 -191
-210 -291 -9 -22 -21 -49 -26 -60 -19 -41 -59 -215 -66 -286 -9 -96 -4 -344 6
-344 1 0 3 -9 4 -20 2 -18 17 -93 21 -105 1 -3 5 -18 9 -35 4 -16 10 -37 13
-45 4 -8 7 -17 7 -20 7 -28 53 -130 58 -130 5 0 8 -4 8 -9 0 -15 71 -131 80
-131 5 0 11 -8 14 -17 12 -36 208 -223 233 -223 6 0 13 -4 15 -8 5 -13 144
-95 223 -131 175 -81 343 -139 555 -190 74 -18 149 -37 166 -42 18 -5 50 -11
71 -13 52 -6 245 -56 258 -67 5 -5 16 -9 25 -9 19 0 129 -58 161 -85 120 -99
134 -309 29 -422 -61 -66 -173 -113 -313 -131 -105 -14 -455 -6 -587 13 -19 3
-55 7 -80 10 -91 11 -145 20 -220 35 -30 6 -66 13 -80 16 -46 9 -205 46 -232
54 -18 6 -28 5 -28 -1 0 -6 -6 -7 -12 -2 -43 27 -193 -26 -262 -93 -40 -39
-70 -91 -81 -144 -9 -39 -9 -161 0 -224 25 -179 136 -335 297 -416 43 -22 78
-38 78 -36 0 2 28 -3 63 -10 34 -8 78 -17 97 -19 19 -3 46 -8 60 -11 14 -3 34
-7 45 -9 56 -10 104 -17 140 -20 22 -3 56 -7 75 -10 19 -2 60 -7 90 -10 30 -3
73 -8 95 -10 236 -24 768 -24 917 0 12 2 45 6 71 10 106 13 307 58 360 80 20
8 37 12 37 9 0 -4 6 -2 13 3 6 5 35 18 62 28 104 38 290 143 351 199 86 78
156 156 202 226 31 47 57 87 57 90 1 3 6 15 14 28 37 68 84 227 98 331 8 57 8
339 0 401 -5 44 -17 107 -35 185 -32 139 -126 323 -217 424 -54 60 -176 171
-188 171 -3 0 -29 16 -58 36 -53 35 -219 122 -249 129 -8 2 -56 20 -106 39
-82 31 -350 110 -416 121 -15 3 -58 12 -95 20 -37 8 -86 18 -108 20 -43 6 -80
13 -80 15 0 2 -17 5 -60 13 -53 9 -158 48 -217 79 -51 27 -152 116 -154 135 0
5 -8 26 -18 48 -26 58 -25 167 1 225 30 67 97 126 163 145 3 0 14 4 25 8 11 3
31 8 45 11 14 3 36 8 50 11 25 5 194 18 218 16 14 -1 22 -1 107 -1 75 1 247
-7 300 -14 22 -3 67 -8 100 -11 62 -7 88 -10 140 -19 17 -3 50 -7 75 -10 52
-7 86 -13 173 -31 155 -32 250 -20 337 44 74 55 117 113 138 185 13 48 8 212
-8 266 -51 168 -161 292 -310 350 -30 12 -56 21 -58 20 -1 -1 -15 1 -30 4 -41
8 -104 18 -137 21 -16 2 -50 6 -75 9 -72 10 -132 17 -170 21 -19 2 -60 6 -90
9 -30 4 -87 8 -127 10 -39 2 -76 7 -82 10 -5 4 -12 2 -16 -3 -3 -6 -15 -7 -28
-2 -19 7 -561 13 -569 6z"/>
<path d="M18788 14945 c-2 -3 -34 -7 -71 -10 -37 -2 -80 -7 -95 -9 -15 -3 -42
-8 -59 -11 -18 -3 -48 -8 -65 -11 -18 -4 -42 -8 -53 -9 -11 -2 -22 -4 -25 -6
-3 -1 -9 -3 -15 -4 -5 -1 -30 -7 -55 -14 -25 -7 -47 -13 -50 -14 -3 0 -36 -11
-75 -24 -38 -14 -74 -26 -80 -27 -16 -4 -146 -65 -190 -88 -22 -12 -53 -29
-70 -37 -16 -9 -34 -22 -38 -28 -4 -7 -14 -13 -20 -13 -7 0 -22 -7 -32 -15
-170 -130 -265 -216 -342 -312 -21 -26 -41 -50 -44 -53 -3 -3 -31 -43 -62 -88
-129 -193 -231 -441 -281 -684 -29 -141 -27 -128 -41 -248 -27 -233 -22 -619
11 -810 2 -14 9 -53 14 -87 6 -34 12 -68 15 -75 2 -7 7 -26 10 -43 3 -16 7
-34 9 -40 1 -5 8 -30 15 -55 23 -83 54 -175 61 -185 4 -5 11 -21 15 -35 14
-48 67 -155 123 -250 54 -90 71 -115 100 -145 6 -8 12 -17 12 -22 0 -4 19 -28
42 -53 98 -107 148 -158 148 -154 0 3 15 -10 34 -28 39 -39 59 -55 106 -88 19
-13 37 -27 40 -30 34 -37 381 -210 422 -210 8 0 18 -4 24 -9 9 -9 226 -64 294
-75 19 -3 46 -8 60 -10 104 -20 249 -29 440 -29 148 0 301 7 320 14 3 1 8 1
11 1 4 -1 33 3 65 9 33 5 75 12 95 14 50 6 235 52 284 71 22 9 47 17 55 19 27
5 104 38 200 86 233 115 457 305 605 513 11 16 25 34 30 40 9 11 17 24 47 79
7 12 16 24 19 27 11 10 130 264 135 290 0 3 3 12 7 20 5 14 38 114 44 135 8
31 28 117 38 170 3 17 10 51 16 77 6 26 8 52 4 58 -3 5 -2 10 2 10 5 0 9 8 9
18 1 9 5 58 10 107 16 165 9 609 -12 725 -4 19 -8 49 -9 65 -2 17 -15 82 -29
145 -15 63 -29 124 -31 134 -9 40 -68 202 -96 263 -16 35 -29 65 -29 67 0 10
-115 203 -131 222 -11 11 -19 25 -19 31 0 6 -3 13 -7 15 -5 2 -28 28 -53 58
-76 93 -84 102 -124 139 -71 67 -82 77 -132 116 -27 22 -50 43 -52 48 -2 4 -8
7 -13 7 -5 0 -30 15 -56 34 -92 65 -368 196 -413 196 -9 0 -20 4 -25 9 -12 9
-99 34 -205 56 -84 18 -90 20 -175 30 -33 4 -69 10 -80 12 -24 7 -531 13 -537
8z m222 -869 c0 -5 6 -4 13 1 6 5 21 8 32 6 11 -1 41 -4 66 -7 88 -10 229 -51
229 -67 0 -5 9 -9 20 -9 11 0 20 -4 20 -10 0 -5 7 -10 15 -10 22 0 166 -149
190 -196 11 -21 22 -41 25 -44 8 -8 72 -159 76 -180 0 -3 3 -12 7 -20 3 -8 8
-28 11 -45 10 -51 17 -79 21 -95 3 -8 7 -40 11 -70 3 -30 9 -57 12 -60 10 -7
15 -150 15 -390 1 -218 -8 -362 -28 -470 -26 -147 -57 -253 -100 -347 -8 -17
-15 -34 -15 -37 0 -4 -5 -12 -10 -19 -6 -7 -25 -34 -43 -62 -54 -84 -139 -160
-223 -200 -116 -55 -177 -67 -334 -68 -132 -1 -199 9 -280 40 -8 4 -17 7 -20
7 -3 1 -35 18 -72 39 -64 36 -198 159 -198 182 0 6 -8 20 -18 31 -21 23 -71
134 -87 194 -1 3 -4 12 -7 20 -13 33 -46 188 -53 245 -2 22 -7 58 -10 80 -9
75 -17 230 -16 338 1 112 1 129 0 150 -1 23 12 202 17 237 3 19 6 42 6 50 2
69 57 296 90 370 37 83 52 115 60 125 58 75 102 125 128 145 18 14 37 30 44
35 21 18 110 63 161 80 52 17 83 23 149 30 21 2 40 5 41 7 8 7 55 2 55 -6z"/>
<path d="M23950 14934 c-87 -15 -125 -22 -125 -24 0 -2 -15 -5 -54 -14 -90
-20 -304 -115 -368 -164 -18 -13 -33 -21 -33 -16 0 4 -9 -2 -20 -14 -12 -12
-24 -22 -28 -22 -4 0 -19 -10 -34 -23 -15 -12 -42 -33 -60 -47 -18 -14 -82
-73 -142 -132 -60 -60 -110 -108 -111 -108 -1 0 -3 26 -4 58 -1 31 -3 64 -5
72 -9 43 -20 76 -29 88 -5 6 -7 12 -3 12 10 0 -46 85 -84 126 -70 76 -169 129
-266 142 -97 12 -434 7 -479 -8 -62 -20 -129 -53 -138 -67 -4 -7 -15 -13 -22
-13 -8 0 -15 -3 -15 -8 0 -4 -17 -25 -38 -47 -33 -35 -74 -91 -78 -105 -1 -5
-4 -13 -27 -75 -17 -43 -18 -4926 -1 -5005 6 -30 17 -68 25 -85 27 -59 92
-137 151 -181 56 -41 71 -48 91 -45 4 0 7 -3 7 -8 0 -18 71 -24 327 -27 240
-3 268 -1 320 17 136 46 231 137 287 273 21 50 21 64 23 896 1 465 3 857 3
873 0 15 4 27 8 27 4 0 28 -19 53 -43 24 -23 62 -55 84 -71 22 -16 45 -34 50
-41 13 -15 245 -157 245 -149 0 3 13 -4 29 -15 16 -12 33 -21 38 -21 4 0 20
-6 34 -14 29 -15 143 -54 177 -61 11 -2 29 -8 39 -13 10 -6 20 -10 23 -10 6 1
99 -14 120 -19 113 -27 388 -22 565 11 146 27 304 92 450 186 73 47 90 60 164
125 83 73 196 197 241 265 8 12 20 28 26 34 6 6 34 50 62 97 98 163 171 341
227 554 27 102 30 114 39 175 3 19 7 44 10 55 2 11 7 49 11 85 3 36 9 78 11
95 3 16 7 67 9 112 2 46 6 87 8 91 10 20 -4 459 -18 572 -2 19 -7 55 -9 80 -6
53 -12 91 -21 140 -4 19 -8 48 -10 64 -3 15 -8 38 -12 50 -4 11 -7 26 -8 31
-6 46 -19 96 -26 101 -5 3 -9 15 -9 27 0 34 -65 210 -119 324 -154 321 -393
571 -686 716 -55 27 -151 65 -185 72 -3 1 -24 7 -47 13 -23 7 -66 17 -95 22
-29 5 -69 12 -88 16 -66 12 -383 11 -460 -2z m-35 -919 c212 -40 384 -178 478
-385 30 -67 77 -208 82 -250 2 -17 6 -34 9 -39 4 -7 8 -31 22 -146 21 -183 21
-516 -1 -634 -1 -9 -6 -41 -11 -71 -4 -30 -8 -57 -9 -60 -1 -3 -5 -21 -9 -40
-27 -126 -93 -284 -157 -376 -88 -129 -259 -247 -386 -268 -15 -2 -28 -5 -28
-6 0 -18 -251 -15 -325 4 -73 19 -193 66 -198 78 -2 4 -8 8 -14 8 -32 0 -163
109 -241 200 -42 50 -113 183 -121 227 -3 15 -8 39 -11 53 -8 33 -8 1085 0
1130 34 193 205 400 417 507 29 15 55 26 58 26 3 0 21 7 40 15 85 35 290 49
405 27z"/>
<path d="M5348 13604 c-3 -3 -52 -7 -109 -9 -114 -4 -139 -10 -214 -48 -63
-31 -172 -137 -158 -151 4 -3 1 -6 -5 -6 -11 0 -47 -87 -58 -142 -8 -40 -11
-258 -4 -258 3 0 6 -13 7 -30 2 -33 40 -125 63 -155 25 -32 104 -109 125 -122
39 -24 91 -44 145 -57 42 -9 277 -12 990 -10 514 1 951 4 971 7 142 23 289
161 335 316 15 53 21 228 10 300 -11 68 -62 162 -120 223 -94 98 -184 135
-323 134 -46 -1 -83 2 -83 6 0 4 -6 5 -14 2 -23 -9 -176 -10 -176 -1 0 5 -5 5
-11 2 -6 -4 -47 -7 -92 -6 -45 1 -91 1 -102 1 -155 -5 -275 -3 -275 3 0 5 -5
5 -11 2 -6 -4 -45 -7 -87 -6 -105 2 -105 2 -209 0 -50 0 -97 2 -102 6 -6 3
-11 2 -11 -2 0 -5 -25 -6 -55 -3 -30 3 -55 4 -55 1 0 -4 -36 -6 -80 -6 -44 0
-80 4 -80 8 0 5 -5 5 -11 1 -14 -8 -173 -9 -186 -1 -6 4 -13 4 -15 1z"/>
</g>
</svg>
